<svg width="24" height="24" viewBox="0 0 24 24" fill="none" xmlns="http://www.w3.org/2000/svg">
<path d="M12.0174 0C5.38998 0 0 5.37256 0 12C0 17.154 3.25977 21.5491 7.82629 23.2486L23.3418 8.06473C21.7174 3.37017 17.2664 0 12.0174 0Z" fill="#5754EB"/>
<path d="M24 12C24 10.6218 23.7669 9.29822 23.3393 8.06556L21.0294 5.75562L3.00537 16.2791L5.65502 18.9287L5.09233 20.5208L7.82447 23.253C9.12495 23.7357 10.5489 24 12.0174 24C18.6448 24 24 18.6274 24 12Z" fill="#0E0BA7"/>
<path d="M21.0294 5.75568V16.2792H12.0174L10.4349 11.0174L12.0174 5.75568H21.0294Z" fill="#71E2F0"/>
<path d="M12.0174 5.75568V16.2792H9.33355L5.09233 20.5209V16.2792H3.00537V5.75568H12.0174Z" fill="#C2FBFF"/>
<path d="M19.9859 6.79915V15.2357H12.0174L10.9739 11.0174L12.0174 6.79915H19.9859Z" fill="#C2FBFF"/>
<path d="M12.0174 6.79915H4.04886V15.2357H12.0174V6.79915Z" fill="white"/>
<path d="M12.0174 12.5826H5.09232V13.6261H12.0174V12.5826Z" fill="#366796"/>
<path d="M12.0174 11.5391H18.9424V10.4957H12.0174L11.4956 11.0174L12.0174 11.5391Z" fill="#121149"/>
<path d="M12.0174 10.4957H5.09232V11.5391H12.0174V10.4957Z" fill="#366796"/>
<path d="M12.0174 9.45218H18.9424V8.40871H12.0174L11.4956 8.93045L12.0174 9.45218Z" fill="#121149"/>
<path d="M12.0174 8.40871H5.09232V9.45218H12.0174V8.40871Z" fill="#366796"/>
</svg>
