<svg width="64" height="64" viewBox="0 0 64 64" fill="none" xmlns="http://www.w3.org/2000/svg">
<g clip-path="url(#clip0_14_265)">
<path d="M31.9642 63.5767C49.4233 63.5767 63.5767 49.4233 63.5767 31.9642C63.5767 14.5051 49.4233 0.351654 31.9642 0.351654C14.5051 0.351654 0.351685 14.5051 0.351685 31.9642C0.351685 49.4233 14.5051 63.5767 31.9642 63.5767Z" fill="#0BA794"/>
<path d="M41.8111 28.4727C40.1841 23.3557 35.3959 19.6472 29.7394 19.6472C24.0829 19.6472 19.2946 23.3557 17.6676 28.4727C13.1857 29.5778 9.83545 33.6417 9.83545 38.4524C9.83545 44.1055 14.4607 48.73 20.113 48.73H39.3657C45.0188 48.73 49.6433 44.1048 49.6433 38.4524C49.644 33.6417 46.2931 29.5778 41.8111 28.4727ZM36.6478 34.9814C35.7956 35.8335 34.4012 35.8335 33.549 34.9814L31.9312 33.3635V41.9158C31.9312 43.1206 30.9449 44.1069 29.7401 44.1069C28.5353 44.1069 27.549 43.1206 27.549 41.9158V33.3628L25.9311 34.9807C25.079 35.8328 23.6845 35.8328 22.8324 34.9807C21.9803 34.1286 21.9803 32.7341 22.8324 31.882L28.1651 26.5493C28.1735 26.5401 28.1798 26.5296 28.1883 26.5205C28.4931 26.2156 28.8683 26.0245 29.2617 25.9381C29.2757 25.9346 29.2891 25.929 29.3031 25.9262C29.4471 25.8974 29.5926 25.8819 29.7387 25.8819C29.7394 25.8819 29.7394 25.8819 29.7401 25.8819C29.7408 25.8819 29.7408 25.8819 29.7415 25.8819C29.8876 25.8819 30.033 25.8974 30.177 25.9262C30.1911 25.929 30.2044 25.9353 30.2185 25.9381C30.6126 26.0245 30.9877 26.2156 31.2919 26.5205C31.301 26.5296 31.3067 26.5401 31.3151 26.5493L36.6478 31.882C37.4999 32.7348 37.4999 34.1293 36.6478 34.9814Z" fill="black"/>
<path d="M44.1533 26.1313C42.5263 21.0143 37.7381 17.3058 32.0815 17.3058C26.425 17.3058 21.6368 21.0143 20.0098 26.1313C15.5278 27.2363 12.1776 31.3003 12.1776 36.111C12.1776 41.764 16.8029 46.3886 22.4552 46.3886H41.7079C47.3609 46.3886 51.9855 41.7633 51.9855 36.111C51.9855 31.3003 48.6353 27.2356 44.1533 26.1313ZM38.9892 32.6393C38.1371 33.4914 36.7426 33.4914 35.8905 32.6393L34.2726 31.0214V39.5736C34.2726 40.7784 33.2863 41.7647 32.0815 41.7647C30.8768 41.7647 29.8904 40.7784 29.8904 39.5736V31.0214L28.2726 32.6393C27.4205 33.4914 26.026 33.4914 25.1739 32.6393C24.3217 31.7871 24.3217 30.3927 25.1739 29.5405L30.5065 24.2078C30.515 24.1987 30.5213 24.1882 30.5297 24.179C30.8346 23.8742 31.2097 23.6831 31.6031 23.5967C31.6172 23.5932 31.6305 23.5875 31.6446 23.5847C31.7886 23.5559 31.934 23.5405 32.0801 23.5405C32.0808 23.5405 32.0808 23.5405 32.0815 23.5405C32.0822 23.5405 32.0822 23.5405 32.0829 23.5405C32.2291 23.5405 32.3745 23.5559 32.5185 23.5847C32.5326 23.5875 32.5459 23.5939 32.5599 23.5967C32.954 23.6831 33.3292 23.8742 33.6334 24.179C33.6425 24.1882 33.6481 24.1987 33.6565 24.2078L38.9892 29.5405C39.8414 30.3927 39.8414 31.7871 38.9892 32.6393Z" fill="white"/>
</g>
<defs>
<clipPath id="clip0_14_265">
<rect width="64" height="64" fill="white"/>
</clipPath>
</defs>
</svg>
